<svg xmlns="http://www.w3.org/2000/svg" width="16" height="16"><g fill="#fff"><path d="M15.43 15.9a.469.469 0 0 1-.327-.132l-.004-.004-3.7-3.699a.197.197 0 0 0-.021-.033l-.065-.077-.076.065a6.77 6.77 0 0 1-4.79 1.592 6.732 6.732 0 0 1-4.558-2.168A6.732 6.732 0 0 1 .1 6.724a6.732 6.732 0 0 1 1.98-4.643A6.731 6.731 0 0 1 6.861.1c1.702 0 3.33.635 4.582 1.789a6.731 6.731 0 0 1 2.168 4.558c.112 1.818-.368 3.332-1.466 4.627l-.13.166-.058.076.073.062c.023.02.359.347 3.738 3.726l.006.006a.473.473 0 0 1-.345.79Zm-8.79-3.22-.005.004h.242a5.774 5.774 0 0 0 4.103-1.702 5.775 5.775 0 0 0 1.703-4.103 5.77 5.77 0 0 0-1.7-4.105 5.767 5.767 0 0 0-4.106-1.7c-1.55 0-3.008.603-4.105 1.7a5.767 5.767 0 0 0-1.7 4.105c0 1.55.604 3.008 1.7 4.105a5.763 5.763 0 0 0 3.868 1.695Z"/><path fill="#fff" d="M15.43 15.8a.37.37 0 0 0 .273-.62l-.005-.005c-3.35-3.35-3.704-3.696-3.732-3.72l-.146-.125.25-.32c1.08-1.275 1.552-2.766 1.442-4.557a6.631 6.631 0 0 0-2.136-4.49A6.647 6.647 0 0 0 6.726.2a6.632 6.632 0 0 0-4.575 1.95 6.633 6.633 0 0 0-1.95 4.575 6.633 6.633 0 0 0 1.761 4.65 6.633 6.633 0 0 0 4.9 2.149 6.67 6.67 0 0 0 4.31-1.582l.153-.13.13.154c.01.014.019.026.025.037l3.692 3.692a.37.37 0 0 0 .258.104m-9.017-3.034a5.86 5.86 0 0 1-3.71-1.712A5.866 5.866 0 0 1 .973 6.88c0-1.578.614-3.06 1.73-4.176A5.866 5.866 0 0 1 6.878.973a5.87 5.87 0 0 1 4.176 1.73 5.866 5.866 0 0 1 1.73 4.176 5.874 5.874 0 0 1-1.732 4.174 5.873 5.873 0 0 1-4.174 1.731h-.483l.018-.018M15.43 16a.57.57 0 0 1-.397-.16l-3.708-3.709c-.01-.01-.015-.024-.024-.035a6.863 6.863 0 1 1 2.41-5.655c.11 1.768-.343 3.347-1.489 4.698l-.126.163c.01.009.025.013 3.744 3.731a.57.57 0 0 1-.41.967ZM6.878 1.173a5.705 5.705 0 0 0 0 11.411 5.711 5.711 0 0 0 5.706-5.705 5.705 5.705 0 0 0-5.706-5.706Z"/></g></svg>
